# xmcd
# Copyright (C) 1995-1998 Ti Kan
#
# Track frame offsets:
#       150
#       18594
#       32908
#       48921
#       70093
#
# Disc length: 1164 seconds
#
# Revision: 0
# Processed by: cddbd v1.5.1PL2 Copyright (c) Steve Scherf et al.
# Submitted via: CD-Transfer v1.0
#
DISCID=3b048a05
DTITLE=Nowe - 
DYEAR=1900
DGENRE=
TTITLE0=Bartek1
TTITLE1=Barek2
TTITLE2=Bartek3
TTITLE3=Bartek4
TTITLE4=Bartek5
EXTD=
EXTT0=
EXTT1=
EXTT2=
EXTT3=
EXTT4=
PLAYORDER=
